G04 #@! TF.GenerationSoftware,KiCad,Pcbnew,(5.1.0)-1*
G04 #@! TF.CreationDate,2019-10-23T17:10:22-04:00*
G04 #@! TF.ProjectId,gc_sp2,67635f73-7032-42e6-9b69-6361645f7063,rev?*
G04 #@! TF.SameCoordinates,Original*
G04 #@! TF.FileFunction,Copper,L1,Top*
G04 #@! TF.FilePolarity,Positive*
%FSLAX46Y46*%
G04 Gerber Fmt 4.6, Leading zero omitted, Abs format (unit mm)*
G04 Created by KiCad (PCBNEW (5.1.0)-1) date 2019-10-23 17:10:22*
%MOMM*%
%LPD*%
G04 APERTURE LIST*
%ADD10R,1.500000X7.000000*%
%ADD11R,0.500000X1.000000*%
%ADD12R,1.200000X1.200000*%
%ADD13R,1.500000X1.250000*%
%ADD14C,0.800000*%
%ADD15C,0.400000*%
%ADD16C,0.250000*%
%ADD17C,0.254000*%
G04 APERTURE END LIST*
D10*
X75500000Y-115900000D03*
X77500000Y-115900000D03*
X79500000Y-115900000D03*
X81500000Y-115900000D03*
D11*
X96100000Y-110300000D03*
X95000000Y-110300000D03*
X93900000Y-110300000D03*
X92800000Y-110300000D03*
X92050000Y-110300000D03*
X91350000Y-110300000D03*
X90600000Y-110300000D03*
X89500000Y-110300000D03*
X88400000Y-110300000D03*
D12*
X87100000Y-111910000D03*
X87100000Y-116360000D03*
X97400000Y-111910000D03*
X97400000Y-116360000D03*
D13*
X79670000Y-106830000D03*
X82170000Y-106830000D03*
D14*
X75500000Y-110500000D03*
X91350000Y-109000000D03*
X79650000Y-108550000D03*
X64050000Y-116250000D03*
X70000000Y-116250000D03*
X63950000Y-108750000D03*
X70000000Y-108750000D03*
X63950000Y-103100000D03*
X70000000Y-103100000D03*
X77250000Y-103050000D03*
X84400000Y-112000000D03*
X92460000Y-111800000D03*
X83870000Y-106830000D03*
X84600000Y-109750000D03*
X78800000Y-109750000D03*
X92800000Y-109100000D03*
X90580000Y-112490000D03*
D15*
X75500000Y-110500000D02*
X75500000Y-116250000D01*
X91350000Y-109050000D02*
X91350000Y-110300000D01*
D16*
X79650000Y-106850000D02*
X79670000Y-106830000D01*
D15*
X79650000Y-108550000D02*
X79650000Y-106850000D01*
X82170000Y-106830000D02*
X83740000Y-106830000D01*
D16*
X83740000Y-106830000D02*
X83870000Y-106830000D01*
X88300000Y-110300000D02*
X88400000Y-110300000D01*
X84600000Y-109750000D02*
X87750000Y-109750000D01*
X87750000Y-109750000D02*
X88300000Y-110300000D01*
X77500000Y-111050000D02*
X77500000Y-116250000D01*
X78800000Y-109750000D02*
X77500000Y-111050000D01*
X92800000Y-109100000D02*
X92800000Y-110300000D01*
X90979999Y-112889999D02*
X90580000Y-112490000D01*
X94080001Y-112889999D02*
X90979999Y-112889999D01*
X95000000Y-110300000D02*
X95000000Y-111970000D01*
X95000000Y-111970000D02*
X94080001Y-112889999D01*
X79500000Y-111500000D02*
X82750000Y-108250000D01*
X79500000Y-116250000D02*
X79500000Y-111500000D01*
X90600000Y-110300000D02*
X90600000Y-109275000D01*
X89575000Y-108250000D02*
X82750000Y-108250000D01*
X90600000Y-109275000D02*
X89575000Y-108250000D01*
X89500000Y-109800000D02*
X89500000Y-110300000D01*
X88700000Y-109000000D02*
X89500000Y-109800000D01*
X84000000Y-109000000D02*
X88700000Y-109000000D01*
X81500000Y-116250000D02*
X81500000Y-111500000D01*
X81500000Y-111500000D02*
X84000000Y-109000000D01*
D17*
G36*
X83040000Y-105465123D02*
G01*
X83036565Y-105500000D01*
X83044363Y-105579176D01*
X82920000Y-105566928D01*
X82455750Y-105570000D01*
X82297000Y-105728750D01*
X82297000Y-106703000D01*
X83396250Y-106703000D01*
X83555000Y-106544250D01*
X83558072Y-106205000D01*
X83555912Y-106183072D01*
X83610816Y-106199727D01*
X83750000Y-106213435D01*
X83784877Y-106210000D01*
X98790000Y-106210000D01*
X98790001Y-119290000D01*
X86210000Y-119290000D01*
X86210000Y-117525010D01*
X86255820Y-117549502D01*
X86375518Y-117585812D01*
X86500000Y-117598072D01*
X86814250Y-117595000D01*
X86973000Y-117436250D01*
X86973000Y-116487000D01*
X87227000Y-116487000D01*
X87227000Y-117436250D01*
X87385750Y-117595000D01*
X87700000Y-117598072D01*
X87824482Y-117585812D01*
X87944180Y-117549502D01*
X88054494Y-117490537D01*
X88151185Y-117411185D01*
X88230537Y-117314494D01*
X88289502Y-117204180D01*
X88325812Y-117084482D01*
X88338072Y-116960000D01*
X96161928Y-116960000D01*
X96174188Y-117084482D01*
X96210498Y-117204180D01*
X96269463Y-117314494D01*
X96348815Y-117411185D01*
X96445506Y-117490537D01*
X96555820Y-117549502D01*
X96675518Y-117585812D01*
X96800000Y-117598072D01*
X97114250Y-117595000D01*
X97273000Y-117436250D01*
X97273000Y-116487000D01*
X97527000Y-116487000D01*
X97527000Y-117436250D01*
X97685750Y-117595000D01*
X98000000Y-117598072D01*
X98124482Y-117585812D01*
X98244180Y-117549502D01*
X98354494Y-117490537D01*
X98451185Y-117411185D01*
X98530537Y-117314494D01*
X98589502Y-117204180D01*
X98625812Y-117084482D01*
X98638072Y-116960000D01*
X98635000Y-116645750D01*
X98476250Y-116487000D01*
X97527000Y-116487000D01*
X97273000Y-116487000D01*
X96323750Y-116487000D01*
X96165000Y-116645750D01*
X96161928Y-116960000D01*
X88338072Y-116960000D01*
X88335000Y-116645750D01*
X88176250Y-116487000D01*
X87227000Y-116487000D01*
X86973000Y-116487000D01*
X86953000Y-116487000D01*
X86953000Y-116233000D01*
X86973000Y-116233000D01*
X86973000Y-115283750D01*
X87227000Y-115283750D01*
X87227000Y-116233000D01*
X88176250Y-116233000D01*
X88335000Y-116074250D01*
X88338072Y-115760000D01*
X96161928Y-115760000D01*
X96165000Y-116074250D01*
X96323750Y-116233000D01*
X97273000Y-116233000D01*
X97273000Y-115283750D01*
X97527000Y-115283750D01*
X97527000Y-116233000D01*
X98476250Y-116233000D01*
X98635000Y-116074250D01*
X98638072Y-115760000D01*
X98625812Y-115635518D01*
X98589502Y-115515820D01*
X98530537Y-115405506D01*
X98451185Y-115308815D01*
X98354494Y-115229463D01*
X98244180Y-115170498D01*
X98124482Y-115134188D01*
X98000000Y-115121928D01*
X97685750Y-115125000D01*
X97527000Y-115283750D01*
X97273000Y-115283750D01*
X97114250Y-115125000D01*
X96800000Y-115121928D01*
X96675518Y-115134188D01*
X96555820Y-115170498D01*
X96445506Y-115229463D01*
X96348815Y-115308815D01*
X96269463Y-115405506D01*
X96210498Y-115515820D01*
X96174188Y-115635518D01*
X96161928Y-115760000D01*
X88338072Y-115760000D01*
X88325812Y-115635518D01*
X88289502Y-115515820D01*
X88230537Y-115405506D01*
X88151185Y-115308815D01*
X88054494Y-115229463D01*
X87944180Y-115170498D01*
X87824482Y-115134188D01*
X87700000Y-115121928D01*
X87385750Y-115125000D01*
X87227000Y-115283750D01*
X86973000Y-115283750D01*
X86814250Y-115125000D01*
X86500000Y-115121928D01*
X86375518Y-115134188D01*
X86255820Y-115170498D01*
X86210000Y-115194990D01*
X86210000Y-113075010D01*
X86255820Y-113099502D01*
X86375518Y-113135812D01*
X86500000Y-113148072D01*
X86814250Y-113145000D01*
X86973000Y-112986250D01*
X86973000Y-112037000D01*
X87227000Y-112037000D01*
X87227000Y-112986250D01*
X87385750Y-113145000D01*
X87700000Y-113148072D01*
X87824482Y-113135812D01*
X87944180Y-113099502D01*
X88054494Y-113040537D01*
X88151185Y-112961185D01*
X88230537Y-112864494D01*
X88289502Y-112754180D01*
X88325812Y-112634482D01*
X88338072Y-112510000D01*
X88336880Y-112388061D01*
X89545000Y-112388061D01*
X89545000Y-112591939D01*
X89584774Y-112791898D01*
X89662795Y-112980256D01*
X89776063Y-113149774D01*
X89920226Y-113293937D01*
X90089744Y-113407205D01*
X90278102Y-113485226D01*
X90478061Y-113525000D01*
X90555774Y-113525000D01*
X90687752Y-113595545D01*
X90831013Y-113639002D01*
X90942666Y-113649999D01*
X90942676Y-113649999D01*
X90979998Y-113653675D01*
X91017321Y-113649999D01*
X94042679Y-113649999D01*
X94080001Y-113653675D01*
X94117323Y-113649999D01*
X94117334Y-113649999D01*
X94228987Y-113639002D01*
X94372248Y-113595545D01*
X94504277Y-113524973D01*
X94620002Y-113430000D01*
X94643804Y-113400997D01*
X95511003Y-112533799D01*
X95540001Y-112510001D01*
X95540001Y-112510000D01*
X96161928Y-112510000D01*
X96174188Y-112634482D01*
X96210498Y-112754180D01*
X96269463Y-112864494D01*
X96348815Y-112961185D01*
X96445506Y-113040537D01*
X96555820Y-113099502D01*
X96675518Y-113135812D01*
X96800000Y-113148072D01*
X97114250Y-113145000D01*
X97273000Y-112986250D01*
X97273000Y-112037000D01*
X97527000Y-112037000D01*
X97527000Y-112986250D01*
X97685750Y-113145000D01*
X98000000Y-113148072D01*
X98124482Y-113135812D01*
X98244180Y-113099502D01*
X98354494Y-113040537D01*
X98451185Y-112961185D01*
X98530537Y-112864494D01*
X98589502Y-112754180D01*
X98625812Y-112634482D01*
X98638072Y-112510000D01*
X98635000Y-112195750D01*
X98476250Y-112037000D01*
X97527000Y-112037000D01*
X97273000Y-112037000D01*
X96323750Y-112037000D01*
X96165000Y-112195750D01*
X96161928Y-112510000D01*
X95540001Y-112510000D01*
X95576339Y-112465723D01*
X95634974Y-112394277D01*
X95705546Y-112262247D01*
X95709564Y-112249002D01*
X95749003Y-112118986D01*
X95760000Y-112007333D01*
X95760000Y-112007324D01*
X95763676Y-111970001D01*
X95760000Y-111932678D01*
X95760000Y-111429208D01*
X95850000Y-111438072D01*
X96163180Y-111438072D01*
X96165000Y-111624250D01*
X96323750Y-111783000D01*
X97273000Y-111783000D01*
X97273000Y-110833750D01*
X97527000Y-110833750D01*
X97527000Y-111783000D01*
X98476250Y-111783000D01*
X98635000Y-111624250D01*
X98638072Y-111310000D01*
X98625812Y-111185518D01*
X98589502Y-111065820D01*
X98530537Y-110955506D01*
X98451185Y-110858815D01*
X98354494Y-110779463D01*
X98244180Y-110720498D01*
X98124482Y-110684188D01*
X98000000Y-110671928D01*
X97685750Y-110675000D01*
X97527000Y-110833750D01*
X97273000Y-110833750D01*
X97114250Y-110675000D01*
X96988072Y-110673767D01*
X96988072Y-109800000D01*
X96975812Y-109675518D01*
X96939502Y-109555820D01*
X96880537Y-109445506D01*
X96801185Y-109348815D01*
X96704494Y-109269463D01*
X96594180Y-109210498D01*
X96474482Y-109174188D01*
X96350000Y-109161928D01*
X95850000Y-109161928D01*
X95725518Y-109174188D01*
X95605820Y-109210498D01*
X95550000Y-109240335D01*
X95494180Y-109210498D01*
X95374482Y-109174188D01*
X95250000Y-109161928D01*
X94750000Y-109161928D01*
X94625518Y-109174188D01*
X94505820Y-109210498D01*
X94450110Y-109240276D01*
X94405579Y-109215350D01*
X94286609Y-109176723D01*
X94181750Y-109165000D01*
X94023000Y-109323750D01*
X94023000Y-110173000D01*
X94047000Y-110173000D01*
X94047000Y-110427000D01*
X94023000Y-110427000D01*
X94023000Y-111276250D01*
X94181750Y-111435000D01*
X94240001Y-111428488D01*
X94240001Y-111655197D01*
X93765200Y-112129999D01*
X91551159Y-112129999D01*
X91497205Y-111999744D01*
X91383937Y-111830226D01*
X91239774Y-111686063D01*
X91070256Y-111572795D01*
X90881898Y-111494774D01*
X90681939Y-111455000D01*
X90478061Y-111455000D01*
X90278102Y-111494774D01*
X90089744Y-111572795D01*
X89920226Y-111686063D01*
X89776063Y-111830226D01*
X89662795Y-111999744D01*
X89584774Y-112188102D01*
X89545000Y-112388061D01*
X88336880Y-112388061D01*
X88335000Y-112195750D01*
X88176250Y-112037000D01*
X87227000Y-112037000D01*
X86973000Y-112037000D01*
X86023750Y-112037000D01*
X85865000Y-112195750D01*
X85863111Y-112389026D01*
X85773020Y-112340872D01*
X85639184Y-112300273D01*
X85534877Y-112290000D01*
X85500000Y-112286565D01*
X85465123Y-112290000D01*
X83534877Y-112290000D01*
X83500000Y-112286565D01*
X83465123Y-112290000D01*
X83360816Y-112300273D01*
X83226980Y-112340872D01*
X83103637Y-112406800D01*
X82995525Y-112495525D01*
X82906800Y-112603637D01*
X82888072Y-112638675D01*
X82888072Y-112400000D01*
X82875812Y-112275518D01*
X82839502Y-112155820D01*
X82780537Y-112045506D01*
X82701185Y-111948815D01*
X82604494Y-111869463D01*
X82494180Y-111810498D01*
X82374482Y-111774188D01*
X82307236Y-111767565D01*
X82764801Y-111310000D01*
X85861928Y-111310000D01*
X85865000Y-111624250D01*
X86023750Y-111783000D01*
X86973000Y-111783000D01*
X86973000Y-110833750D01*
X86814250Y-110675000D01*
X86500000Y-110671928D01*
X86375518Y-110684188D01*
X86255820Y-110720498D01*
X86145506Y-110779463D01*
X86048815Y-110858815D01*
X85969463Y-110955506D01*
X85910498Y-111065820D01*
X85874188Y-111185518D01*
X85861928Y-111310000D01*
X82764801Y-111310000D01*
X83743578Y-110331224D01*
X83796063Y-110409774D01*
X83940226Y-110553937D01*
X84109744Y-110667205D01*
X84298102Y-110745226D01*
X84498061Y-110785000D01*
X84701939Y-110785000D01*
X84901898Y-110745226D01*
X85090256Y-110667205D01*
X85259774Y-110553937D01*
X85303711Y-110510000D01*
X87435198Y-110510000D01*
X87511928Y-110586730D01*
X87511928Y-110673767D01*
X87385750Y-110675000D01*
X87227000Y-110833750D01*
X87227000Y-111783000D01*
X88176250Y-111783000D01*
X88335000Y-111624250D01*
X88336820Y-111438072D01*
X88650000Y-111438072D01*
X88774482Y-111425812D01*
X88894180Y-111389502D01*
X88950000Y-111359665D01*
X89005820Y-111389502D01*
X89125518Y-111425812D01*
X89250000Y-111438072D01*
X89750000Y-111438072D01*
X89874482Y-111425812D01*
X89994180Y-111389502D01*
X90050000Y-111359665D01*
X90105820Y-111389502D01*
X90225518Y-111425812D01*
X90350000Y-111438072D01*
X90850000Y-111438072D01*
X90974482Y-111425812D01*
X90975000Y-111425655D01*
X90975518Y-111425812D01*
X91100000Y-111438072D01*
X91600000Y-111438072D01*
X91700000Y-111428223D01*
X91800000Y-111438072D01*
X92300000Y-111438072D01*
X92424482Y-111425812D01*
X92425000Y-111425655D01*
X92425518Y-111425812D01*
X92550000Y-111438072D01*
X93050000Y-111438072D01*
X93174482Y-111425812D01*
X93294180Y-111389502D01*
X93349890Y-111359724D01*
X93394421Y-111384650D01*
X93513391Y-111423277D01*
X93618250Y-111435000D01*
X93777000Y-111276250D01*
X93777000Y-110427000D01*
X93753000Y-110427000D01*
X93753000Y-110173000D01*
X93777000Y-110173000D01*
X93777000Y-109445899D01*
X93795226Y-109401898D01*
X93835000Y-109201939D01*
X93835000Y-108998061D01*
X93795226Y-108798102D01*
X93717205Y-108609744D01*
X93603937Y-108440226D01*
X93459774Y-108296063D01*
X93290256Y-108182795D01*
X93101898Y-108104774D01*
X92901939Y-108065000D01*
X92698061Y-108065000D01*
X92498102Y-108104774D01*
X92309744Y-108182795D01*
X92140226Y-108296063D01*
X92125000Y-108311289D01*
X92009774Y-108196063D01*
X91840256Y-108082795D01*
X91651898Y-108004774D01*
X91451939Y-107965000D01*
X91248061Y-107965000D01*
X91048102Y-108004774D01*
X90859744Y-108082795D01*
X90690226Y-108196063D01*
X90643045Y-108243244D01*
X90138804Y-107739002D01*
X90115001Y-107709999D01*
X89999276Y-107615026D01*
X89867247Y-107544454D01*
X89723986Y-107500997D01*
X89612333Y-107490000D01*
X89612322Y-107490000D01*
X89575000Y-107486324D01*
X89537678Y-107490000D01*
X83554625Y-107490000D01*
X83558072Y-107455000D01*
X83555000Y-107115750D01*
X83396250Y-106957000D01*
X82297000Y-106957000D01*
X82297000Y-106977000D01*
X82043000Y-106977000D01*
X82043000Y-106957000D01*
X82023000Y-106957000D01*
X82023000Y-106703000D01*
X82043000Y-106703000D01*
X82043000Y-105728750D01*
X81884250Y-105570000D01*
X81420000Y-105566928D01*
X81295518Y-105579188D01*
X81175820Y-105615498D01*
X81065506Y-105674463D01*
X80968815Y-105753815D01*
X80920000Y-105813296D01*
X80871185Y-105753815D01*
X80774494Y-105674463D01*
X80664180Y-105615498D01*
X80544482Y-105579188D01*
X80420000Y-105566928D01*
X78920000Y-105566928D01*
X78795518Y-105579188D01*
X78675820Y-105615498D01*
X78565506Y-105674463D01*
X78468815Y-105753815D01*
X78389463Y-105850506D01*
X78330498Y-105960820D01*
X78294188Y-106080518D01*
X78281928Y-106205000D01*
X78281928Y-107455000D01*
X78294188Y-107579482D01*
X78330498Y-107699180D01*
X78389463Y-107809494D01*
X78468815Y-107906185D01*
X78565506Y-107985537D01*
X78675820Y-108044502D01*
X78732044Y-108061557D01*
X78654774Y-108248102D01*
X78615000Y-108448061D01*
X78615000Y-108651939D01*
X78630227Y-108728493D01*
X78498102Y-108754774D01*
X78309744Y-108832795D01*
X78140226Y-108946063D01*
X77996063Y-109090226D01*
X77882795Y-109259744D01*
X77804774Y-109448102D01*
X77765000Y-109648061D01*
X77765000Y-109710198D01*
X76989003Y-110486196D01*
X76959999Y-110509999D01*
X76915948Y-110563676D01*
X76865026Y-110625724D01*
X76805909Y-110736323D01*
X76794454Y-110757754D01*
X76750997Y-110901015D01*
X76740000Y-111012668D01*
X76740000Y-111012678D01*
X76736324Y-111050000D01*
X76740000Y-111087323D01*
X76740000Y-111762913D01*
X76625518Y-111774188D01*
X76505820Y-111810498D01*
X76500000Y-111813609D01*
X76494180Y-111810498D01*
X76374482Y-111774188D01*
X76335000Y-111770299D01*
X76335000Y-111113285D01*
X76417205Y-110990256D01*
X76495226Y-110801898D01*
X76535000Y-110601939D01*
X76535000Y-110398061D01*
X76495226Y-110198102D01*
X76417205Y-110009744D01*
X76303937Y-109840226D01*
X76159774Y-109696063D01*
X75990256Y-109582795D01*
X75801898Y-109504774D01*
X75601939Y-109465000D01*
X75398061Y-109465000D01*
X75198102Y-109504774D01*
X75009744Y-109582795D01*
X74840226Y-109696063D01*
X74696063Y-109840226D01*
X74582795Y-110009744D01*
X74504774Y-110198102D01*
X74465000Y-110398061D01*
X74465000Y-110601939D01*
X74504774Y-110801898D01*
X74582795Y-110990256D01*
X74665000Y-111113285D01*
X74665000Y-111770299D01*
X74625518Y-111774188D01*
X74505820Y-111810498D01*
X74395506Y-111869463D01*
X74298815Y-111948815D01*
X74219463Y-112045506D01*
X74160498Y-112155820D01*
X74124188Y-112275518D01*
X74122762Y-112290000D01*
X72534877Y-112290000D01*
X72500000Y-112286565D01*
X72465123Y-112290000D01*
X72360816Y-112300273D01*
X72226980Y-112340872D01*
X72103637Y-112406800D01*
X71995525Y-112495525D01*
X71906800Y-112603637D01*
X71840872Y-112726980D01*
X71800273Y-112860816D01*
X71786565Y-113000000D01*
X71790001Y-113034887D01*
X71790000Y-119290000D01*
X63710000Y-119290000D01*
X63710000Y-101210000D01*
X83040001Y-101210000D01*
X83040000Y-105465123D01*
X83040000Y-105465123D01*
G37*
X83040000Y-105465123D02*
X83036565Y-105500000D01*
X83044363Y-105579176D01*
X82920000Y-105566928D01*
X82455750Y-105570000D01*
X82297000Y-105728750D01*
X82297000Y-106703000D01*
X83396250Y-106703000D01*
X83555000Y-106544250D01*
X83558072Y-106205000D01*
X83555912Y-106183072D01*
X83610816Y-106199727D01*
X83750000Y-106213435D01*
X83784877Y-106210000D01*
X98790000Y-106210000D01*
X98790001Y-119290000D01*
X86210000Y-119290000D01*
X86210000Y-117525010D01*
X86255820Y-117549502D01*
X86375518Y-117585812D01*
X86500000Y-117598072D01*
X86814250Y-117595000D01*
X86973000Y-117436250D01*
X86973000Y-116487000D01*
X87227000Y-116487000D01*
X87227000Y-117436250D01*
X87385750Y-117595000D01*
X87700000Y-117598072D01*
X87824482Y-117585812D01*
X87944180Y-117549502D01*
X88054494Y-117490537D01*
X88151185Y-117411185D01*
X88230537Y-117314494D01*
X88289502Y-117204180D01*
X88325812Y-117084482D01*
X88338072Y-116960000D01*
X96161928Y-116960000D01*
X96174188Y-117084482D01*
X96210498Y-117204180D01*
X96269463Y-117314494D01*
X96348815Y-117411185D01*
X96445506Y-117490537D01*
X96555820Y-117549502D01*
X96675518Y-117585812D01*
X96800000Y-117598072D01*
X97114250Y-117595000D01*
X97273000Y-117436250D01*
X97273000Y-116487000D01*
X97527000Y-116487000D01*
X97527000Y-117436250D01*
X97685750Y-117595000D01*
X98000000Y-117598072D01*
X98124482Y-117585812D01*
X98244180Y-117549502D01*
X98354494Y-117490537D01*
X98451185Y-117411185D01*
X98530537Y-117314494D01*
X98589502Y-117204180D01*
X98625812Y-117084482D01*
X98638072Y-116960000D01*
X98635000Y-116645750D01*
X98476250Y-116487000D01*
X97527000Y-116487000D01*
X97273000Y-116487000D01*
X96323750Y-116487000D01*
X96165000Y-116645750D01*
X96161928Y-116960000D01*
X88338072Y-116960000D01*
X88335000Y-116645750D01*
X88176250Y-116487000D01*
X87227000Y-116487000D01*
X86973000Y-116487000D01*
X86953000Y-116487000D01*
X86953000Y-116233000D01*
X86973000Y-116233000D01*
X86973000Y-115283750D01*
X87227000Y-115283750D01*
X87227000Y-116233000D01*
X88176250Y-116233000D01*
X88335000Y-116074250D01*
X88338072Y-115760000D01*
X96161928Y-115760000D01*
X96165000Y-116074250D01*
X96323750Y-116233000D01*
X97273000Y-116233000D01*
X97273000Y-115283750D01*
X97527000Y-115283750D01*
X97527000Y-116233000D01*
X98476250Y-116233000D01*
X98635000Y-116074250D01*
X98638072Y-115760000D01*
X98625812Y-115635518D01*
X98589502Y-115515820D01*
X98530537Y-115405506D01*
X98451185Y-115308815D01*
X98354494Y-115229463D01*
X98244180Y-115170498D01*
X98124482Y-115134188D01*
X98000000Y-115121928D01*
X97685750Y-115125000D01*
X97527000Y-115283750D01*
X97273000Y-115283750D01*
X97114250Y-115125000D01*
X96800000Y-115121928D01*
X96675518Y-115134188D01*
X96555820Y-115170498D01*
X96445506Y-115229463D01*
X96348815Y-115308815D01*
X96269463Y-115405506D01*
X96210498Y-115515820D01*
X96174188Y-115635518D01*
X96161928Y-115760000D01*
X88338072Y-115760000D01*
X88325812Y-115635518D01*
X88289502Y-115515820D01*
X88230537Y-115405506D01*
X88151185Y-115308815D01*
X88054494Y-115229463D01*
X87944180Y-115170498D01*
X87824482Y-115134188D01*
X87700000Y-115121928D01*
X87385750Y-115125000D01*
X87227000Y-115283750D01*
X86973000Y-115283750D01*
X86814250Y-115125000D01*
X86500000Y-115121928D01*
X86375518Y-115134188D01*
X86255820Y-115170498D01*
X86210000Y-115194990D01*
X86210000Y-113075010D01*
X86255820Y-113099502D01*
X86375518Y-113135812D01*
X86500000Y-113148072D01*
X86814250Y-113145000D01*
X86973000Y-112986250D01*
X86973000Y-112037000D01*
X87227000Y-112037000D01*
X87227000Y-112986250D01*
X87385750Y-113145000D01*
X87700000Y-113148072D01*
X87824482Y-113135812D01*
X87944180Y-113099502D01*
X88054494Y-113040537D01*
X88151185Y-112961185D01*
X88230537Y-112864494D01*
X88289502Y-112754180D01*
X88325812Y-112634482D01*
X88338072Y-112510000D01*
X88336880Y-112388061D01*
X89545000Y-112388061D01*
X89545000Y-112591939D01*
X89584774Y-112791898D01*
X89662795Y-112980256D01*
X89776063Y-113149774D01*
X89920226Y-113293937D01*
X90089744Y-113407205D01*
X90278102Y-113485226D01*
X90478061Y-113525000D01*
X90555774Y-113525000D01*
X90687752Y-113595545D01*
X90831013Y-113639002D01*
X90942666Y-113649999D01*
X90942676Y-113649999D01*
X90979998Y-113653675D01*
X91017321Y-113649999D01*
X94042679Y-113649999D01*
X94080001Y-113653675D01*
X94117323Y-113649999D01*
X94117334Y-113649999D01*
X94228987Y-113639002D01*
X94372248Y-113595545D01*
X94504277Y-113524973D01*
X94620002Y-113430000D01*
X94643804Y-113400997D01*
X95511003Y-112533799D01*
X95540001Y-112510001D01*
X95540001Y-112510000D01*
X96161928Y-112510000D01*
X96174188Y-112634482D01*
X96210498Y-112754180D01*
X96269463Y-112864494D01*
X96348815Y-112961185D01*
X96445506Y-113040537D01*
X96555820Y-113099502D01*
X96675518Y-113135812D01*
X96800000Y-113148072D01*
X97114250Y-113145000D01*
X97273000Y-112986250D01*
X97273000Y-112037000D01*
X97527000Y-112037000D01*
X97527000Y-112986250D01*
X97685750Y-113145000D01*
X98000000Y-113148072D01*
X98124482Y-113135812D01*
X98244180Y-113099502D01*
X98354494Y-113040537D01*
X98451185Y-112961185D01*
X98530537Y-112864494D01*
X98589502Y-112754180D01*
X98625812Y-112634482D01*
X98638072Y-112510000D01*
X98635000Y-112195750D01*
X98476250Y-112037000D01*
X97527000Y-112037000D01*
X97273000Y-112037000D01*
X96323750Y-112037000D01*
X96165000Y-112195750D01*
X96161928Y-112510000D01*
X95540001Y-112510000D01*
X95576339Y-112465723D01*
X95634974Y-112394277D01*
X95705546Y-112262247D01*
X95709564Y-112249002D01*
X95749003Y-112118986D01*
X95760000Y-112007333D01*
X95760000Y-112007324D01*
X95763676Y-111970001D01*
X95760000Y-111932678D01*
X95760000Y-111429208D01*
X95850000Y-111438072D01*
X96163180Y-111438072D01*
X96165000Y-111624250D01*
X96323750Y-111783000D01*
X97273000Y-111783000D01*
X97273000Y-110833750D01*
X97527000Y-110833750D01*
X97527000Y-111783000D01*
X98476250Y-111783000D01*
X98635000Y-111624250D01*
X98638072Y-111310000D01*
X98625812Y-111185518D01*
X98589502Y-111065820D01*
X98530537Y-110955506D01*
X98451185Y-110858815D01*
X98354494Y-110779463D01*
X98244180Y-110720498D01*
X98124482Y-110684188D01*
X98000000Y-110671928D01*
X97685750Y-110675000D01*
X97527000Y-110833750D01*
X97273000Y-110833750D01*
X97114250Y-110675000D01*
X96988072Y-110673767D01*
X96988072Y-109800000D01*
X96975812Y-109675518D01*
X96939502Y-109555820D01*
X96880537Y-109445506D01*
X96801185Y-109348815D01*
X96704494Y-109269463D01*
X96594180Y-109210498D01*
X96474482Y-109174188D01*
X96350000Y-109161928D01*
X95850000Y-109161928D01*
X95725518Y-109174188D01*
X95605820Y-109210498D01*
X95550000Y-109240335D01*
X95494180Y-109210498D01*
X95374482Y-109174188D01*
X95250000Y-109161928D01*
X94750000Y-109161928D01*
X94625518Y-109174188D01*
X94505820Y-109210498D01*
X94450110Y-109240276D01*
X94405579Y-109215350D01*
X94286609Y-109176723D01*
X94181750Y-109165000D01*
X94023000Y-109323750D01*
X94023000Y-110173000D01*
X94047000Y-110173000D01*
X94047000Y-110427000D01*
X94023000Y-110427000D01*
X94023000Y-111276250D01*
X94181750Y-111435000D01*
X94240001Y-111428488D01*
X94240001Y-111655197D01*
X93765200Y-112129999D01*
X91551159Y-112129999D01*
X91497205Y-111999744D01*
X91383937Y-111830226D01*
X91239774Y-111686063D01*
X91070256Y-111572795D01*
X90881898Y-111494774D01*
X90681939Y-111455000D01*
X90478061Y-111455000D01*
X90278102Y-111494774D01*
X90089744Y-111572795D01*
X89920226Y-111686063D01*
X89776063Y-111830226D01*
X89662795Y-111999744D01*
X89584774Y-112188102D01*
X89545000Y-112388061D01*
X88336880Y-112388061D01*
X88335000Y-112195750D01*
X88176250Y-112037000D01*
X87227000Y-112037000D01*
X86973000Y-112037000D01*
X86023750Y-112037000D01*
X85865000Y-112195750D01*
X85863111Y-112389026D01*
X85773020Y-112340872D01*
X85639184Y-112300273D01*
X85534877Y-112290000D01*
X85500000Y-112286565D01*
X85465123Y-112290000D01*
X83534877Y-112290000D01*
X83500000Y-112286565D01*
X83465123Y-112290000D01*
X83360816Y-112300273D01*
X83226980Y-112340872D01*
X83103637Y-112406800D01*
X82995525Y-112495525D01*
X82906800Y-112603637D01*
X82888072Y-112638675D01*
X82888072Y-112400000D01*
X82875812Y-112275518D01*
X82839502Y-112155820D01*
X82780537Y-112045506D01*
X82701185Y-111948815D01*
X82604494Y-111869463D01*
X82494180Y-111810498D01*
X82374482Y-111774188D01*
X82307236Y-111767565D01*
X82764801Y-111310000D01*
X85861928Y-111310000D01*
X85865000Y-111624250D01*
X86023750Y-111783000D01*
X86973000Y-111783000D01*
X86973000Y-110833750D01*
X86814250Y-110675000D01*
X86500000Y-110671928D01*
X86375518Y-110684188D01*
X86255820Y-110720498D01*
X86145506Y-110779463D01*
X86048815Y-110858815D01*
X85969463Y-110955506D01*
X85910498Y-111065820D01*
X85874188Y-111185518D01*
X85861928Y-111310000D01*
X82764801Y-111310000D01*
X83743578Y-110331224D01*
X83796063Y-110409774D01*
X83940226Y-110553937D01*
X84109744Y-110667205D01*
X84298102Y-110745226D01*
X84498061Y-110785000D01*
X84701939Y-110785000D01*
X84901898Y-110745226D01*
X85090256Y-110667205D01*
X85259774Y-110553937D01*
X85303711Y-110510000D01*
X87435198Y-110510000D01*
X87511928Y-110586730D01*
X87511928Y-110673767D01*
X87385750Y-110675000D01*
X87227000Y-110833750D01*
X87227000Y-111783000D01*
X88176250Y-111783000D01*
X88335000Y-111624250D01*
X88336820Y-111438072D01*
X88650000Y-111438072D01*
X88774482Y-111425812D01*
X88894180Y-111389502D01*
X88950000Y-111359665D01*
X89005820Y-111389502D01*
X89125518Y-111425812D01*
X89250000Y-111438072D01*
X89750000Y-111438072D01*
X89874482Y-111425812D01*
X89994180Y-111389502D01*
X90050000Y-111359665D01*
X90105820Y-111389502D01*
X90225518Y-111425812D01*
X90350000Y-111438072D01*
X90850000Y-111438072D01*
X90974482Y-111425812D01*
X90975000Y-111425655D01*
X90975518Y-111425812D01*
X91100000Y-111438072D01*
X91600000Y-111438072D01*
X91700000Y-111428223D01*
X91800000Y-111438072D01*
X92300000Y-111438072D01*
X92424482Y-111425812D01*
X92425000Y-111425655D01*
X92425518Y-111425812D01*
X92550000Y-111438072D01*
X93050000Y-111438072D01*
X93174482Y-111425812D01*
X93294180Y-111389502D01*
X93349890Y-111359724D01*
X93394421Y-111384650D01*
X93513391Y-111423277D01*
X93618250Y-111435000D01*
X93777000Y-111276250D01*
X93777000Y-110427000D01*
X93753000Y-110427000D01*
X93753000Y-110173000D01*
X93777000Y-110173000D01*
X93777000Y-109445899D01*
X93795226Y-109401898D01*
X93835000Y-109201939D01*
X93835000Y-108998061D01*
X93795226Y-108798102D01*
X93717205Y-108609744D01*
X93603937Y-108440226D01*
X93459774Y-108296063D01*
X93290256Y-108182795D01*
X93101898Y-108104774D01*
X92901939Y-108065000D01*
X92698061Y-108065000D01*
X92498102Y-108104774D01*
X92309744Y-108182795D01*
X92140226Y-108296063D01*
X92125000Y-108311289D01*
X92009774Y-108196063D01*
X91840256Y-108082795D01*
X91651898Y-108004774D01*
X91451939Y-107965000D01*
X91248061Y-107965000D01*
X91048102Y-108004774D01*
X90859744Y-108082795D01*
X90690226Y-108196063D01*
X90643045Y-108243244D01*
X90138804Y-107739002D01*
X90115001Y-107709999D01*
X89999276Y-107615026D01*
X89867247Y-107544454D01*
X89723986Y-107500997D01*
X89612333Y-107490000D01*
X89612322Y-107490000D01*
X89575000Y-107486324D01*
X89537678Y-107490000D01*
X83554625Y-107490000D01*
X83558072Y-107455000D01*
X83555000Y-107115750D01*
X83396250Y-106957000D01*
X82297000Y-106957000D01*
X82297000Y-106977000D01*
X82043000Y-106977000D01*
X82043000Y-106957000D01*
X82023000Y-106957000D01*
X82023000Y-106703000D01*
X82043000Y-106703000D01*
X82043000Y-105728750D01*
X81884250Y-105570000D01*
X81420000Y-105566928D01*
X81295518Y-105579188D01*
X81175820Y-105615498D01*
X81065506Y-105674463D01*
X80968815Y-105753815D01*
X80920000Y-105813296D01*
X80871185Y-105753815D01*
X80774494Y-105674463D01*
X80664180Y-105615498D01*
X80544482Y-105579188D01*
X80420000Y-105566928D01*
X78920000Y-105566928D01*
X78795518Y-105579188D01*
X78675820Y-105615498D01*
X78565506Y-105674463D01*
X78468815Y-105753815D01*
X78389463Y-105850506D01*
X78330498Y-105960820D01*
X78294188Y-106080518D01*
X78281928Y-106205000D01*
X78281928Y-107455000D01*
X78294188Y-107579482D01*
X78330498Y-107699180D01*
X78389463Y-107809494D01*
X78468815Y-107906185D01*
X78565506Y-107985537D01*
X78675820Y-108044502D01*
X78732044Y-108061557D01*
X78654774Y-108248102D01*
X78615000Y-108448061D01*
X78615000Y-108651939D01*
X78630227Y-108728493D01*
X78498102Y-108754774D01*
X78309744Y-108832795D01*
X78140226Y-108946063D01*
X77996063Y-109090226D01*
X77882795Y-109259744D01*
X77804774Y-109448102D01*
X77765000Y-109648061D01*
X77765000Y-109710198D01*
X76989003Y-110486196D01*
X76959999Y-110509999D01*
X76915948Y-110563676D01*
X76865026Y-110625724D01*
X76805909Y-110736323D01*
X76794454Y-110757754D01*
X76750997Y-110901015D01*
X76740000Y-111012668D01*
X76740000Y-111012678D01*
X76736324Y-111050000D01*
X76740000Y-111087323D01*
X76740000Y-111762913D01*
X76625518Y-111774188D01*
X76505820Y-111810498D01*
X76500000Y-111813609D01*
X76494180Y-111810498D01*
X76374482Y-111774188D01*
X76335000Y-111770299D01*
X76335000Y-111113285D01*
X76417205Y-110990256D01*
X76495226Y-110801898D01*
X76535000Y-110601939D01*
X76535000Y-110398061D01*
X76495226Y-110198102D01*
X76417205Y-110009744D01*
X76303937Y-109840226D01*
X76159774Y-109696063D01*
X75990256Y-109582795D01*
X75801898Y-109504774D01*
X75601939Y-109465000D01*
X75398061Y-109465000D01*
X75198102Y-109504774D01*
X75009744Y-109582795D01*
X74840226Y-109696063D01*
X74696063Y-109840226D01*
X74582795Y-110009744D01*
X74504774Y-110198102D01*
X74465000Y-110398061D01*
X74465000Y-110601939D01*
X74504774Y-110801898D01*
X74582795Y-110990256D01*
X74665000Y-111113285D01*
X74665000Y-111770299D01*
X74625518Y-111774188D01*
X74505820Y-111810498D01*
X74395506Y-111869463D01*
X74298815Y-111948815D01*
X74219463Y-112045506D01*
X74160498Y-112155820D01*
X74124188Y-112275518D01*
X74122762Y-112290000D01*
X72534877Y-112290000D01*
X72500000Y-112286565D01*
X72465123Y-112290000D01*
X72360816Y-112300273D01*
X72226980Y-112340872D01*
X72103637Y-112406800D01*
X71995525Y-112495525D01*
X71906800Y-112603637D01*
X71840872Y-112726980D01*
X71800273Y-112860816D01*
X71786565Y-113000000D01*
X71790001Y-113034887D01*
X71790000Y-119290000D01*
X63710000Y-119290000D01*
X63710000Y-101210000D01*
X83040001Y-101210000D01*
X83040000Y-105465123D01*
M02*
