G04 #@! TF.GenerationSoftware,KiCad,Pcbnew,(5.1.0)-1*
G04 #@! TF.CreationDate,2019-05-17T10:18:47-04:00*
G04 #@! TF.ProjectId,gc_sp2,67635f73-7032-42e6-9b69-6361645f7063,rev?*
G04 #@! TF.SameCoordinates,Original*
G04 #@! TF.FileFunction,Legend,Bot*
G04 #@! TF.FilePolarity,Positive*
%FSLAX46Y46*%
G04 Gerber Fmt 4.6, Leading zero omitted, Abs format (unit mm)*
G04 Created by KiCad (PCBNEW (5.1.0)-1) date 2019-05-17 10:18:47*
%MOMM*%
%LPD*%
G04 APERTURE LIST*
%ADD10C,0.150000*%
%ADD11C,0.300000*%
%ADD12C,0.120000*%
G04 APERTURE END LIST*
D10*
X80952380Y-111100000D02*
X79952380Y-111100000D01*
X79952380Y-111338095D01*
X80000000Y-111480952D01*
X80095238Y-111576190D01*
X80190476Y-111623809D01*
X80380952Y-111671428D01*
X80523809Y-111671428D01*
X80714285Y-111623809D01*
X80809523Y-111576190D01*
X80904761Y-111480952D01*
X80952380Y-111338095D01*
X80952380Y-111100000D01*
X80952380Y-112100000D02*
X79952380Y-112100000D01*
X78957142Y-110304761D02*
X79004761Y-110257142D01*
X79052380Y-110114285D01*
X79052380Y-110019047D01*
X79004761Y-109876190D01*
X78909523Y-109780952D01*
X78814285Y-109733333D01*
X78623809Y-109685714D01*
X78480952Y-109685714D01*
X78290476Y-109733333D01*
X78195238Y-109780952D01*
X78100000Y-109876190D01*
X78052380Y-110019047D01*
X78052380Y-110114285D01*
X78100000Y-110257142D01*
X78147619Y-110304761D01*
X79052380Y-111209523D02*
X79052380Y-110733333D01*
X78052380Y-110733333D01*
X79052380Y-111542857D02*
X78052380Y-111542857D01*
X79052380Y-112114285D02*
X78480952Y-111685714D01*
X78052380Y-112114285D02*
X78623809Y-111542857D01*
X76100000Y-110138095D02*
X76052380Y-110042857D01*
X76052380Y-109900000D01*
X76100000Y-109757142D01*
X76195238Y-109661904D01*
X76290476Y-109614285D01*
X76480952Y-109566666D01*
X76623809Y-109566666D01*
X76814285Y-109614285D01*
X76909523Y-109661904D01*
X77004761Y-109757142D01*
X77052380Y-109900000D01*
X77052380Y-109995238D01*
X77004761Y-110138095D01*
X76957142Y-110185714D01*
X76623809Y-110185714D01*
X76623809Y-109995238D01*
X77052380Y-110614285D02*
X76052380Y-110614285D01*
X77052380Y-111185714D01*
X76052380Y-111185714D01*
X77052380Y-111661904D02*
X76052380Y-111661904D01*
X76052380Y-111900000D01*
X76100000Y-112042857D01*
X76195238Y-112138095D01*
X76290476Y-112185714D01*
X76480952Y-112233333D01*
X76623809Y-112233333D01*
X76814285Y-112185714D01*
X76909523Y-112138095D01*
X77004761Y-112042857D01*
X77052380Y-111900000D01*
X77052380Y-111661904D01*
X82100000Y-110038095D02*
X82052380Y-109942857D01*
X82052380Y-109800000D01*
X82100000Y-109657142D01*
X82195238Y-109561904D01*
X82290476Y-109514285D01*
X82480952Y-109466666D01*
X82623809Y-109466666D01*
X82814285Y-109514285D01*
X82909523Y-109561904D01*
X83004761Y-109657142D01*
X83052380Y-109800000D01*
X83052380Y-109895238D01*
X83004761Y-110038095D01*
X82957142Y-110085714D01*
X82623809Y-110085714D01*
X82623809Y-109895238D01*
X83052380Y-110514285D02*
X82052380Y-110514285D01*
X83052380Y-111085714D01*
X82052380Y-111085714D01*
X83052380Y-111561904D02*
X82052380Y-111561904D01*
X82052380Y-111800000D01*
X82100000Y-111942857D01*
X82195238Y-112038095D01*
X82290476Y-112085714D01*
X82480952Y-112133333D01*
X82623809Y-112133333D01*
X82814285Y-112085714D01*
X82909523Y-112038095D01*
X83004761Y-111942857D01*
X83052380Y-111800000D01*
X83052380Y-111561904D01*
D11*
X82192857Y-103603571D02*
X81335714Y-103603571D01*
X81764285Y-105103571D02*
X81764285Y-103603571D01*
X80835714Y-105103571D02*
X80835714Y-103603571D01*
X80835714Y-104317857D02*
X79978571Y-104317857D01*
X79978571Y-105103571D02*
X79978571Y-103603571D01*
X79264285Y-105103571D02*
X79264285Y-103603571D01*
X78621428Y-105032142D02*
X78407142Y-105103571D01*
X78050000Y-105103571D01*
X77907142Y-105032142D01*
X77835714Y-104960714D01*
X77764285Y-104817857D01*
X77764285Y-104675000D01*
X77835714Y-104532142D01*
X77907142Y-104460714D01*
X78050000Y-104389285D01*
X78335714Y-104317857D01*
X78478571Y-104246428D01*
X78550000Y-104175000D01*
X78621428Y-104032142D01*
X78621428Y-103889285D01*
X78550000Y-103746428D01*
X78478571Y-103675000D01*
X78335714Y-103603571D01*
X77978571Y-103603571D01*
X77764285Y-103675000D01*
X76050000Y-105032142D02*
X75835714Y-105103571D01*
X75478571Y-105103571D01*
X75335714Y-105032142D01*
X75264285Y-104960714D01*
X75192857Y-104817857D01*
X75192857Y-104675000D01*
X75264285Y-104532142D01*
X75335714Y-104460714D01*
X75478571Y-104389285D01*
X75764285Y-104317857D01*
X75907142Y-104246428D01*
X75978571Y-104175000D01*
X76050000Y-104032142D01*
X76050000Y-103889285D01*
X75978571Y-103746428D01*
X75907142Y-103675000D01*
X75764285Y-103603571D01*
X75407142Y-103603571D01*
X75192857Y-103675000D01*
X74550000Y-105103571D02*
X74550000Y-103603571D01*
X73835714Y-105103571D02*
X73835714Y-103603571D01*
X73478571Y-103603571D01*
X73264285Y-103675000D01*
X73121428Y-103817857D01*
X73050000Y-103960714D01*
X72978571Y-104246428D01*
X72978571Y-104460714D01*
X73050000Y-104746428D01*
X73121428Y-104889285D01*
X73264285Y-105032142D01*
X73478571Y-105103571D01*
X73835714Y-105103571D01*
X72335714Y-104317857D02*
X71835714Y-104317857D01*
X71621428Y-105103571D02*
X72335714Y-105103571D01*
X72335714Y-103603571D01*
X71621428Y-103603571D01*
X69335714Y-104317857D02*
X69835714Y-104317857D01*
X69835714Y-105103571D02*
X69835714Y-103603571D01*
X69121428Y-103603571D01*
X68621428Y-104675000D02*
X67907142Y-104675000D01*
X68764285Y-105103571D02*
X68264285Y-103603571D01*
X67764285Y-105103571D01*
X66407142Y-104960714D02*
X66478571Y-105032142D01*
X66692857Y-105103571D01*
X66835714Y-105103571D01*
X67050000Y-105032142D01*
X67192857Y-104889285D01*
X67264285Y-104746428D01*
X67335714Y-104460714D01*
X67335714Y-104246428D01*
X67264285Y-103960714D01*
X67192857Y-103817857D01*
X67050000Y-103675000D01*
X66835714Y-103603571D01*
X66692857Y-103603571D01*
X66478571Y-103675000D01*
X66407142Y-103746428D01*
X65764285Y-104317857D02*
X65264285Y-104317857D01*
X65050000Y-105103571D02*
X65764285Y-105103571D01*
X65764285Y-103603571D01*
X65050000Y-103603571D01*
X77550000Y-106153571D02*
X77264285Y-106153571D01*
X77121428Y-106225000D01*
X76978571Y-106367857D01*
X76907142Y-106653571D01*
X76907142Y-107153571D01*
X76978571Y-107439285D01*
X77121428Y-107582142D01*
X77264285Y-107653571D01*
X77550000Y-107653571D01*
X77692857Y-107582142D01*
X77835714Y-107439285D01*
X77907142Y-107153571D01*
X77907142Y-106653571D01*
X77835714Y-106367857D01*
X77692857Y-106225000D01*
X77550000Y-106153571D01*
X76264285Y-106153571D02*
X76264285Y-107367857D01*
X76192857Y-107510714D01*
X76121428Y-107582142D01*
X75978571Y-107653571D01*
X75692857Y-107653571D01*
X75550000Y-107582142D01*
X75478571Y-107510714D01*
X75407142Y-107367857D01*
X75407142Y-106153571D01*
X74907142Y-106153571D02*
X74050000Y-106153571D01*
X74478571Y-107653571D02*
X74478571Y-106153571D01*
X73621428Y-107582142D02*
X73407142Y-107653571D01*
X73050000Y-107653571D01*
X72907142Y-107582142D01*
X72835714Y-107510714D01*
X72764285Y-107367857D01*
X72764285Y-107225000D01*
X72835714Y-107082142D01*
X72907142Y-107010714D01*
X73050000Y-106939285D01*
X73335714Y-106867857D01*
X73478571Y-106796428D01*
X73550000Y-106725000D01*
X73621428Y-106582142D01*
X73621428Y-106439285D01*
X73550000Y-106296428D01*
X73478571Y-106225000D01*
X73335714Y-106153571D01*
X72978571Y-106153571D01*
X72764285Y-106225000D01*
X72121428Y-107653571D02*
X72121428Y-106153571D01*
X71407142Y-107653571D02*
X71407142Y-106153571D01*
X71050000Y-106153571D01*
X70835714Y-106225000D01*
X70692857Y-106367857D01*
X70621428Y-106510714D01*
X70550000Y-106796428D01*
X70550000Y-107010714D01*
X70621428Y-107296428D01*
X70692857Y-107439285D01*
X70835714Y-107582142D01*
X71050000Y-107653571D01*
X71407142Y-107653571D01*
X69907142Y-106867857D02*
X69407142Y-106867857D01*
X69192857Y-107653571D02*
X69907142Y-107653571D01*
X69907142Y-106153571D01*
X69192857Y-106153571D01*
D12*
X88700000Y-106250000D02*
X89700000Y-106250000D01*
X89700000Y-107950000D02*
X88700000Y-107950000D01*
D10*
X92657142Y-106933333D02*
X92704761Y-106885714D01*
X92752380Y-106742857D01*
X92752380Y-106647619D01*
X92704761Y-106504761D01*
X92609523Y-106409523D01*
X92514285Y-106361904D01*
X92323809Y-106314285D01*
X92180952Y-106314285D01*
X91990476Y-106361904D01*
X91895238Y-106409523D01*
X91800000Y-106504761D01*
X91752380Y-106647619D01*
X91752380Y-106742857D01*
X91800000Y-106885714D01*
X91847619Y-106933333D01*
X92752380Y-107885714D02*
X92752380Y-107314285D01*
X92752380Y-107600000D02*
X91752380Y-107600000D01*
X91895238Y-107504761D01*
X91990476Y-107409523D01*
X92038095Y-107314285D01*
M02*
