G04 #@! TF.GenerationSoftware,KiCad,Pcbnew,(5.1.0)-1*
G04 #@! TF.CreationDate,2019-05-17T10:18:47-04:00*
G04 #@! TF.ProjectId,gc_sp2,67635f73-7032-42e6-9b69-6361645f7063,rev?*
G04 #@! TF.SameCoordinates,Original*
G04 #@! TF.FileFunction,Legend,Top*
G04 #@! TF.FilePolarity,Positive*
%FSLAX46Y46*%
G04 Gerber Fmt 4.6, Leading zero omitted, Abs format (unit mm)*
G04 Created by KiCad (PCBNEW (5.1.0)-1) date 2019-05-17 10:18:47*
%MOMM*%
%LPD*%
G04 APERTURE LIST*
%ADD10C,0.150000*%
%ADD11C,0.100000*%
%ADD12C,0.300000*%
G04 APERTURE END LIST*
D10*
X75571428Y-112471428D02*
X75571428Y-111709523D01*
X75952380Y-112090476D02*
X75190476Y-112090476D01*
X74952380Y-111328571D02*
X74952380Y-110709523D01*
X75333333Y-111042857D01*
X75333333Y-110900000D01*
X75380952Y-110804761D01*
X75428571Y-110757142D01*
X75523809Y-110709523D01*
X75761904Y-110709523D01*
X75857142Y-110757142D01*
X75904761Y-110804761D01*
X75952380Y-110900000D01*
X75952380Y-111185714D01*
X75904761Y-111280952D01*
X75857142Y-111328571D01*
X75857142Y-110280952D02*
X75904761Y-110233333D01*
X75952380Y-110280952D01*
X75904761Y-110328571D01*
X75857142Y-110280952D01*
X75952380Y-110280952D01*
X74952380Y-109900000D02*
X74952380Y-109280952D01*
X75333333Y-109614285D01*
X75333333Y-109471428D01*
X75380952Y-109376190D01*
X75428571Y-109328571D01*
X75523809Y-109280952D01*
X75761904Y-109280952D01*
X75857142Y-109328571D01*
X75904761Y-109376190D01*
X75952380Y-109471428D01*
X75952380Y-109757142D01*
X75904761Y-109852380D01*
X75857142Y-109900000D01*
X78052380Y-112304761D02*
X77052380Y-112304761D01*
X78052380Y-111828571D02*
X77052380Y-111828571D01*
X78052380Y-111257142D01*
X77052380Y-111257142D01*
X77052380Y-110923809D02*
X77052380Y-110352380D01*
X78052380Y-110638095D02*
X77052380Y-110638095D01*
X80052380Y-112285714D02*
X79052380Y-112285714D01*
X79052380Y-112047619D01*
X79100000Y-111904761D01*
X79195238Y-111809523D01*
X79290476Y-111761904D01*
X79480952Y-111714285D01*
X79623809Y-111714285D01*
X79814285Y-111761904D01*
X79909523Y-111809523D01*
X80004761Y-111904761D01*
X80052380Y-112047619D01*
X80052380Y-112285714D01*
X79052380Y-111095238D02*
X79052380Y-110904761D01*
X79100000Y-110809523D01*
X79195238Y-110714285D01*
X79385714Y-110666666D01*
X79719047Y-110666666D01*
X79909523Y-110714285D01*
X80004761Y-110809523D01*
X80052380Y-110904761D01*
X80052380Y-111095238D01*
X80004761Y-111190476D01*
X79909523Y-111285714D01*
X79719047Y-111333333D01*
X79385714Y-111333333D01*
X79195238Y-111285714D01*
X79100000Y-111190476D01*
X79052380Y-111095238D01*
X81857142Y-111666666D02*
X81904761Y-111714285D01*
X81952380Y-111857142D01*
X81952380Y-111952380D01*
X81904761Y-112095238D01*
X81809523Y-112190476D01*
X81714285Y-112238095D01*
X81523809Y-112285714D01*
X81380952Y-112285714D01*
X81190476Y-112238095D01*
X81095238Y-112190476D01*
X81000000Y-112095238D01*
X80952380Y-111952380D01*
X80952380Y-111857142D01*
X81000000Y-111714285D01*
X81047619Y-111666666D01*
X81904761Y-111285714D02*
X81952380Y-111142857D01*
X81952380Y-110904761D01*
X81904761Y-110809523D01*
X81857142Y-110761904D01*
X81761904Y-110714285D01*
X81666666Y-110714285D01*
X81571428Y-110761904D01*
X81523809Y-110809523D01*
X81476190Y-110904761D01*
X81428571Y-111095238D01*
X81380952Y-111190476D01*
X81333333Y-111238095D01*
X81238095Y-111285714D01*
X81142857Y-111285714D01*
X81047619Y-111238095D01*
X81000000Y-111190476D01*
X80952380Y-111095238D01*
X80952380Y-110857142D01*
X81000000Y-110714285D01*
D11*
X94733333Y-108611904D02*
X95266666Y-108611904D01*
X94923809Y-109411904D01*
X94052380Y-108561904D02*
X93900000Y-108561904D01*
X93823809Y-108600000D01*
X93785714Y-108638095D01*
X93709523Y-108752380D01*
X93671428Y-108904761D01*
X93671428Y-109209523D01*
X93709523Y-109285714D01*
X93747619Y-109323809D01*
X93823809Y-109361904D01*
X93976190Y-109361904D01*
X94052380Y-109323809D01*
X94090476Y-109285714D01*
X94128571Y-109209523D01*
X94128571Y-109019047D01*
X94090476Y-108942857D01*
X94052380Y-108904761D01*
X93976190Y-108866666D01*
X93823809Y-108866666D01*
X93747619Y-108904761D01*
X93709523Y-108942857D01*
X93671428Y-109019047D01*
X93040476Y-108561904D02*
X92659523Y-108561904D01*
X92621428Y-108942857D01*
X92659523Y-108904761D01*
X92735714Y-108866666D01*
X92926190Y-108866666D01*
X93002380Y-108904761D01*
X93040476Y-108942857D01*
X93078571Y-109019047D01*
X93078571Y-109209523D01*
X93040476Y-109285714D01*
X93002380Y-109323809D01*
X92926190Y-109361904D01*
X92735714Y-109361904D01*
X92659523Y-109323809D01*
X92621428Y-109285714D01*
X91552380Y-108828571D02*
X91552380Y-109361904D01*
X91361904Y-108523809D02*
X91171428Y-109095238D01*
X91666666Y-109095238D01*
X90333333Y-108561904D02*
X90828571Y-108561904D01*
X90561904Y-108866666D01*
X90676190Y-108866666D01*
X90752380Y-108904761D01*
X90790476Y-108942857D01*
X90828571Y-109019047D01*
X90828571Y-109209523D01*
X90790476Y-109285714D01*
X90752380Y-109323809D01*
X90676190Y-109361904D01*
X90447619Y-109361904D01*
X90371428Y-109323809D01*
X90333333Y-109285714D01*
X89271428Y-108638095D02*
X89309523Y-108600000D01*
X89385714Y-108561904D01*
X89576190Y-108561904D01*
X89652380Y-108600000D01*
X89690476Y-108638095D01*
X89728571Y-108714285D01*
X89728571Y-108790476D01*
X89690476Y-108904761D01*
X89233333Y-109361904D01*
X89728571Y-109361904D01*
X88678571Y-109361904D02*
X88221428Y-109361904D01*
X88450000Y-109361904D02*
X88450000Y-108561904D01*
X88373809Y-108676190D01*
X88297619Y-108752380D01*
X88221428Y-108790476D01*
X96023809Y-108954761D02*
X95947619Y-108916666D01*
X95909523Y-108878571D01*
X95871428Y-108802380D01*
X95871428Y-108764285D01*
X95909523Y-108688095D01*
X95947619Y-108650000D01*
X96023809Y-108611904D01*
X96176190Y-108611904D01*
X96252380Y-108650000D01*
X96290476Y-108688095D01*
X96328571Y-108764285D01*
X96328571Y-108802380D01*
X96290476Y-108878571D01*
X96252380Y-108916666D01*
X96176190Y-108954761D01*
X96023809Y-108954761D01*
X95947619Y-108992857D01*
X95909523Y-109030952D01*
X95871428Y-109107142D01*
X95871428Y-109259523D01*
X95909523Y-109335714D01*
X95947619Y-109373809D01*
X96023809Y-109411904D01*
X96176190Y-109411904D01*
X96252380Y-109373809D01*
X96290476Y-109335714D01*
X96328571Y-109259523D01*
X96328571Y-109107142D01*
X96290476Y-109030952D01*
X96252380Y-108992857D01*
X96176190Y-108954761D01*
D10*
X63664285Y-110804761D02*
X63807142Y-110852380D01*
X64045238Y-110852380D01*
X64140476Y-110804761D01*
X64188095Y-110757142D01*
X64235714Y-110661904D01*
X64235714Y-110566666D01*
X64188095Y-110471428D01*
X64140476Y-110423809D01*
X64045238Y-110376190D01*
X63854761Y-110328571D01*
X63759523Y-110280952D01*
X63711904Y-110233333D01*
X63664285Y-110138095D01*
X63664285Y-110042857D01*
X63711904Y-109947619D01*
X63759523Y-109900000D01*
X63854761Y-109852380D01*
X64092857Y-109852380D01*
X64235714Y-109900000D01*
X64664285Y-110852380D02*
X64664285Y-109852380D01*
X64902380Y-109852380D01*
X65045238Y-109900000D01*
X65140476Y-109995238D01*
X65188095Y-110090476D01*
X65235714Y-110280952D01*
X65235714Y-110423809D01*
X65188095Y-110614285D01*
X65140476Y-110709523D01*
X65045238Y-110804761D01*
X64902380Y-110852380D01*
X64664285Y-110852380D01*
X65616666Y-109947619D02*
X65664285Y-109900000D01*
X65759523Y-109852380D01*
X65997619Y-109852380D01*
X66092857Y-109900000D01*
X66140476Y-109947619D01*
X66188095Y-110042857D01*
X66188095Y-110138095D01*
X66140476Y-110280952D01*
X65569047Y-110852380D01*
X66188095Y-110852380D01*
X66569047Y-110804761D02*
X66711904Y-110852380D01*
X66950000Y-110852380D01*
X67045238Y-110804761D01*
X67092857Y-110757142D01*
X67140476Y-110661904D01*
X67140476Y-110566666D01*
X67092857Y-110471428D01*
X67045238Y-110423809D01*
X66950000Y-110376190D01*
X66759523Y-110328571D01*
X66664285Y-110280952D01*
X66616666Y-110233333D01*
X66569047Y-110138095D01*
X66569047Y-110042857D01*
X66616666Y-109947619D01*
X66664285Y-109900000D01*
X66759523Y-109852380D01*
X66997619Y-109852380D01*
X67140476Y-109900000D01*
X67569047Y-110852380D02*
X67569047Y-109852380D01*
X67950000Y-109852380D01*
X68045238Y-109900000D01*
X68092857Y-109947619D01*
X68140476Y-110042857D01*
X68140476Y-110185714D01*
X68092857Y-110280952D01*
X68045238Y-110328571D01*
X67950000Y-110376190D01*
X67569047Y-110376190D01*
X68521428Y-109947619D02*
X68569047Y-109900000D01*
X68664285Y-109852380D01*
X68902380Y-109852380D01*
X68997619Y-109900000D01*
X69045238Y-109947619D01*
X69092857Y-110042857D01*
X69092857Y-110138095D01*
X69045238Y-110280952D01*
X68473809Y-110852380D01*
X69092857Y-110852380D01*
X70807142Y-110852380D02*
X70235714Y-110852380D01*
X70521428Y-110852380D02*
X70521428Y-109852380D01*
X70426190Y-109995238D01*
X70330952Y-110090476D01*
X70235714Y-110138095D01*
X71235714Y-110757142D02*
X71283333Y-110804761D01*
X71235714Y-110852380D01*
X71188095Y-110804761D01*
X71235714Y-110757142D01*
X71235714Y-110852380D01*
X72235714Y-110852380D02*
X71664285Y-110852380D01*
X71950000Y-110852380D02*
X71950000Y-109852380D01*
X71854761Y-109995238D01*
X71759523Y-110090476D01*
X71664285Y-110138095D01*
X64345238Y-111676190D02*
X64297619Y-111628571D01*
X64202380Y-111580952D01*
X64107142Y-111580952D01*
X64011904Y-111628571D01*
X63964285Y-111676190D01*
X63916666Y-111771428D01*
X63916666Y-111866666D01*
X63964285Y-111961904D01*
X64011904Y-112009523D01*
X64107142Y-112057142D01*
X64202380Y-112057142D01*
X64297619Y-112009523D01*
X64345238Y-111961904D01*
X64345238Y-111580952D02*
X64345238Y-111961904D01*
X64392857Y-112009523D01*
X64440476Y-112009523D01*
X64535714Y-111961904D01*
X64583333Y-111866666D01*
X64583333Y-111628571D01*
X64488095Y-111485714D01*
X64345238Y-111390476D01*
X64154761Y-111342857D01*
X63964285Y-111390476D01*
X63821428Y-111485714D01*
X63726190Y-111628571D01*
X63678571Y-111819047D01*
X63726190Y-112009523D01*
X63821428Y-112152380D01*
X63964285Y-112247619D01*
X64154761Y-112295238D01*
X64345238Y-112247619D01*
X64488095Y-112152380D01*
X65440476Y-112104761D02*
X65345238Y-112152380D01*
X65154761Y-112152380D01*
X65059523Y-112104761D01*
X65011904Y-112057142D01*
X64964285Y-111961904D01*
X64964285Y-111676190D01*
X65011904Y-111580952D01*
X65059523Y-111533333D01*
X65154761Y-111485714D01*
X65345238Y-111485714D01*
X65440476Y-111533333D01*
X65869047Y-112152380D02*
X65869047Y-111485714D01*
X65869047Y-111152380D02*
X65821428Y-111200000D01*
X65869047Y-111247619D01*
X65916666Y-111200000D01*
X65869047Y-111152380D01*
X65869047Y-111247619D01*
X66202380Y-111485714D02*
X66583333Y-111485714D01*
X66345238Y-111152380D02*
X66345238Y-112009523D01*
X66392857Y-112104761D01*
X66488095Y-112152380D01*
X66583333Y-112152380D01*
X66916666Y-112152380D02*
X66916666Y-111485714D01*
X66916666Y-111676190D02*
X66964285Y-111580952D01*
X67011904Y-111533333D01*
X67107142Y-111485714D01*
X67202380Y-111485714D01*
X67964285Y-111485714D02*
X67964285Y-112152380D01*
X67535714Y-111485714D02*
X67535714Y-112009523D01*
X67583333Y-112104761D01*
X67678571Y-112152380D01*
X67821428Y-112152380D01*
X67916666Y-112104761D01*
X67964285Y-112057142D01*
X68392857Y-112104761D02*
X68488095Y-112152380D01*
X68678571Y-112152380D01*
X68773809Y-112104761D01*
X68821428Y-112009523D01*
X68821428Y-111961904D01*
X68773809Y-111866666D01*
X68678571Y-111819047D01*
X68535714Y-111819047D01*
X68440476Y-111771428D01*
X68392857Y-111676190D01*
X68392857Y-111628571D01*
X68440476Y-111533333D01*
X68535714Y-111485714D01*
X68678571Y-111485714D01*
X68773809Y-111533333D01*
X69154761Y-111152380D02*
X69773809Y-111152380D01*
X69440476Y-111533333D01*
X69583333Y-111533333D01*
X69678571Y-111580952D01*
X69726190Y-111628571D01*
X69773809Y-111723809D01*
X69773809Y-111961904D01*
X69726190Y-112057142D01*
X69678571Y-112104761D01*
X69583333Y-112152380D01*
X69297619Y-112152380D01*
X69202380Y-112104761D01*
X69154761Y-112057142D01*
X70392857Y-111152380D02*
X70488095Y-111152380D01*
X70583333Y-111200000D01*
X70630952Y-111247619D01*
X70678571Y-111342857D01*
X70726190Y-111533333D01*
X70726190Y-111771428D01*
X70678571Y-111961904D01*
X70630952Y-112057142D01*
X70583333Y-112104761D01*
X70488095Y-112152380D01*
X70392857Y-112152380D01*
X70297619Y-112104761D01*
X70250000Y-112057142D01*
X70202380Y-111961904D01*
X70154761Y-111771428D01*
X70154761Y-111533333D01*
X70202380Y-111342857D01*
X70250000Y-111247619D01*
X70297619Y-111200000D01*
X70392857Y-111152380D01*
X71345238Y-111152380D02*
X71440476Y-111152380D01*
X71535714Y-111200000D01*
X71583333Y-111247619D01*
X71630952Y-111342857D01*
X71678571Y-111533333D01*
X71678571Y-111771428D01*
X71630952Y-111961904D01*
X71583333Y-112057142D01*
X71535714Y-112104761D01*
X71440476Y-112152380D01*
X71345238Y-112152380D01*
X71250000Y-112104761D01*
X71202380Y-112057142D01*
X71154761Y-111961904D01*
X71107142Y-111771428D01*
X71107142Y-111533333D01*
X71154761Y-111342857D01*
X71202380Y-111247619D01*
X71250000Y-111200000D01*
X71345238Y-111152380D01*
X72297619Y-111152380D02*
X72392857Y-111152380D01*
X72488095Y-111200000D01*
X72535714Y-111247619D01*
X72583333Y-111342857D01*
X72630952Y-111533333D01*
X72630952Y-111771428D01*
X72583333Y-111961904D01*
X72535714Y-112057142D01*
X72488095Y-112104761D01*
X72392857Y-112152380D01*
X72297619Y-112152380D01*
X72202380Y-112104761D01*
X72154761Y-112057142D01*
X72107142Y-111961904D01*
X72059523Y-111771428D01*
X72059523Y-111533333D01*
X72107142Y-111342857D01*
X72154761Y-111247619D01*
X72202380Y-111200000D01*
X72297619Y-111152380D01*
X73059523Y-111485714D02*
X73059523Y-112485714D01*
X73059523Y-111533333D02*
X73154761Y-111485714D01*
X73345238Y-111485714D01*
X73440476Y-111533333D01*
X73488095Y-111580952D01*
X73535714Y-111676190D01*
X73535714Y-111961904D01*
X73488095Y-112057142D01*
X73440476Y-112104761D01*
X73345238Y-112152380D01*
X73154761Y-112152380D01*
X73059523Y-112104761D01*
X73916666Y-112104761D02*
X74011904Y-112152380D01*
X74202380Y-112152380D01*
X74297619Y-112104761D01*
X74345238Y-112009523D01*
X74345238Y-111961904D01*
X74297619Y-111866666D01*
X74202380Y-111819047D01*
X74059523Y-111819047D01*
X73964285Y-111771428D01*
X73916666Y-111676190D01*
X73916666Y-111628571D01*
X73964285Y-111533333D01*
X74059523Y-111485714D01*
X74202380Y-111485714D01*
X74297619Y-111533333D01*
X74773809Y-112152380D02*
X74773809Y-111485714D01*
X74773809Y-111152380D02*
X74726190Y-111200000D01*
X74773809Y-111247619D01*
X74821428Y-111200000D01*
X74773809Y-111152380D01*
X74773809Y-111247619D01*
D12*
X64835714Y-103603571D02*
X65692857Y-103603571D01*
X65264285Y-105103571D02*
X65264285Y-103603571D01*
X66192857Y-105103571D02*
X66192857Y-103603571D01*
X66192857Y-104317857D02*
X67050000Y-104317857D01*
X67050000Y-105103571D02*
X67050000Y-103603571D01*
X67764285Y-105103571D02*
X67764285Y-103603571D01*
X68407142Y-105032142D02*
X68621428Y-105103571D01*
X68978571Y-105103571D01*
X69121428Y-105032142D01*
X69192857Y-104960714D01*
X69264285Y-104817857D01*
X69264285Y-104675000D01*
X69192857Y-104532142D01*
X69121428Y-104460714D01*
X68978571Y-104389285D01*
X68692857Y-104317857D01*
X68550000Y-104246428D01*
X68478571Y-104175000D01*
X68407142Y-104032142D01*
X68407142Y-103889285D01*
X68478571Y-103746428D01*
X68550000Y-103675000D01*
X68692857Y-103603571D01*
X69050000Y-103603571D01*
X69264285Y-103675000D01*
X70978571Y-105032142D02*
X71192857Y-105103571D01*
X71550000Y-105103571D01*
X71692857Y-105032142D01*
X71764285Y-104960714D01*
X71835714Y-104817857D01*
X71835714Y-104675000D01*
X71764285Y-104532142D01*
X71692857Y-104460714D01*
X71550000Y-104389285D01*
X71264285Y-104317857D01*
X71121428Y-104246428D01*
X71050000Y-104175000D01*
X70978571Y-104032142D01*
X70978571Y-103889285D01*
X71050000Y-103746428D01*
X71121428Y-103675000D01*
X71264285Y-103603571D01*
X71621428Y-103603571D01*
X71835714Y-103675000D01*
X72478571Y-105103571D02*
X72478571Y-103603571D01*
X73192857Y-105103571D02*
X73192857Y-103603571D01*
X73550000Y-103603571D01*
X73764285Y-103675000D01*
X73907142Y-103817857D01*
X73978571Y-103960714D01*
X74050000Y-104246428D01*
X74050000Y-104460714D01*
X73978571Y-104746428D01*
X73907142Y-104889285D01*
X73764285Y-105032142D01*
X73550000Y-105103571D01*
X73192857Y-105103571D01*
X74692857Y-104317857D02*
X75192857Y-104317857D01*
X75407142Y-105103571D02*
X74692857Y-105103571D01*
X74692857Y-103603571D01*
X75407142Y-103603571D01*
X77692857Y-104317857D02*
X77192857Y-104317857D01*
X77192857Y-105103571D02*
X77192857Y-103603571D01*
X77907142Y-103603571D01*
X78407142Y-104675000D02*
X79121428Y-104675000D01*
X78264285Y-105103571D02*
X78764285Y-103603571D01*
X79264285Y-105103571D01*
X80621428Y-104960714D02*
X80550000Y-105032142D01*
X80335714Y-105103571D01*
X80192857Y-105103571D01*
X79978571Y-105032142D01*
X79835714Y-104889285D01*
X79764285Y-104746428D01*
X79692857Y-104460714D01*
X79692857Y-104246428D01*
X79764285Y-103960714D01*
X79835714Y-103817857D01*
X79978571Y-103675000D01*
X80192857Y-103603571D01*
X80335714Y-103603571D01*
X80550000Y-103675000D01*
X80621428Y-103746428D01*
X81264285Y-104317857D02*
X81764285Y-104317857D01*
X81978571Y-105103571D02*
X81264285Y-105103571D01*
X81264285Y-103603571D01*
X81978571Y-103603571D01*
X70764285Y-107653571D02*
X70764285Y-106153571D01*
X71478571Y-107653571D02*
X71478571Y-106153571D01*
X72335714Y-107653571D01*
X72335714Y-106153571D01*
X72978571Y-107582142D02*
X73192857Y-107653571D01*
X73550000Y-107653571D01*
X73692857Y-107582142D01*
X73764285Y-107510714D01*
X73835714Y-107367857D01*
X73835714Y-107225000D01*
X73764285Y-107082142D01*
X73692857Y-107010714D01*
X73550000Y-106939285D01*
X73264285Y-106867857D01*
X73121428Y-106796428D01*
X73050000Y-106725000D01*
X72978571Y-106582142D01*
X72978571Y-106439285D01*
X73050000Y-106296428D01*
X73121428Y-106225000D01*
X73264285Y-106153571D01*
X73621428Y-106153571D01*
X73835714Y-106225000D01*
X74478571Y-107653571D02*
X74478571Y-106153571D01*
X75192857Y-107653571D02*
X75192857Y-106153571D01*
X75550000Y-106153571D01*
X75764285Y-106225000D01*
X75907142Y-106367857D01*
X75978571Y-106510714D01*
X76050000Y-106796428D01*
X76050000Y-107010714D01*
X75978571Y-107296428D01*
X75907142Y-107439285D01*
X75764285Y-107582142D01*
X75550000Y-107653571D01*
X75192857Y-107653571D01*
X76692857Y-106867857D02*
X77192857Y-106867857D01*
X77407142Y-107653571D02*
X76692857Y-107653571D01*
X76692857Y-106153571D01*
X77407142Y-106153571D01*
D10*
X97900000Y-116900000D02*
X86600000Y-116900000D01*
X86600000Y-116900000D02*
X86600000Y-110900000D01*
X86600000Y-110900000D02*
X97900000Y-110900000D01*
X97900000Y-110900000D02*
X97900000Y-116900000D01*
X74261904Y-121102380D02*
X74261904Y-120102380D01*
X74642857Y-120102380D01*
X74738095Y-120150000D01*
X74785714Y-120197619D01*
X74833333Y-120292857D01*
X74833333Y-120435714D01*
X74785714Y-120530952D01*
X74738095Y-120578571D01*
X74642857Y-120626190D01*
X74261904Y-120626190D01*
X75785714Y-121102380D02*
X75214285Y-121102380D01*
X75500000Y-121102380D02*
X75500000Y-120102380D01*
X75404761Y-120245238D01*
X75309523Y-120340476D01*
X75214285Y-120388095D01*
X86766666Y-117752380D02*
X86766666Y-118466666D01*
X86719047Y-118609523D01*
X86623809Y-118704761D01*
X86480952Y-118752380D01*
X86385714Y-118752380D01*
X87766666Y-118752380D02*
X87195238Y-118752380D01*
X87480952Y-118752380D02*
X87480952Y-117752380D01*
X87385714Y-117895238D01*
X87290476Y-117990476D01*
X87195238Y-118038095D01*
M02*
